v 1.000000 2.000000 1.000000
v 0.000000 2.000000 1.000000
v 1.000000 1.500000 0.500000
v 0.000000 2.000000 0.500000
v 1.000000 1.500000 0.500000
v 0.000000 2.000000 0.500000
v 0.000000 0.000000 0.500000
v 1.000000 1.500000 0.500000
v 1.000000 1.500000 0.500000
v 0.000000 0.000000 0.500000
v 0.000000 0.000000 0.000000
v 1.000000 1.000000 0.000000
vt 0.000000 1.000000
vt 0.000000 1.000000
vt 0.000000 1.000000
vt 0.000000 0.000000
vt 0.000000 0.000000
vt 1.000000 0.000000
vt 1.000000 0.000000
vt 1.000000 0.000000
vt 1.000000 1.000000
vt 1.000000 1.000000
vt 0.000000 1.000000
vt 0.000000 1.000000
vn 0.000000 0.707118 -0.707096
vn 0.247527 0.886357 -0.391281
vn -0.303559 0.862345 -0.405232
vn 0.447222 0.894423 0.000020
vn -0.303559 0.862345 -0.405232
vn 0.000000 0.000000 -1.000000
vn 0.000000 0.000000 -1.000000
vn 0.000000 0.000000 -1.000000
vn -0.303559 0.862345 -0.405232
vn -0.832076 0.554661 -0.000021
vn -0.742703 0.596500 -0.304269
vn -0.577377 0.577324 -0.577350
f 1/1/1 3/3/3 2/2/2
f 4/4/4 2/2/2 5/5/5
f 6/6/6 8/8/8 7/7/7
f 9/9/9 11/11/11 10/10/10
f 12/12/12 11/11/11 3/3/3
