v 0.000000 2.100000 0.000000
v 1.000000 0.900000 0.000000
v 1.000000 0.550000 0.500000
v 1.000000 0.550000 0.500000
v 0.000000 2.100000 0.500000
v 0.000000 -0.100000 0.500000
v 0.000000 2.100000 0.500000
v 1.000000 0.550000 0.500000
v 0.000000 -0.100000 0.500000
v 1.000000 0.550000 0.500000
v 0.000000 -0.100000 1.000000
v 1.000000 0.200000 1.000000
vt 0.000000 1.000000
vt 0.000000 1.000000
vt 0.000000 1.000000
vt 0.000000 0.000000
vt 0.000000 0.000000
vt 1.000000 0.000000
vt 1.000000 0.000000
vt 1.000000 0.000000
vt 1.000000 1.000000
vt 1.000000 1.000000
vt 0.000000 1.000000
vt 0.000000 1.000000
vn 0.789481 0.576907 0.209520
vn 0.701032 0.584181 0.409007
vn 0.250785 0.913703 0.319772
vn 0.250785 0.913703 0.319772
vn 0.840306 0.542112 0.000021
vn -0.000015 -0.000015 1.000000
vn -0.000015 -0.000015 1.000000
vn -0.000015 -0.000015 1.000000
vn -0.545002 0.838434 0.000021
vn 0.250785 0.913703 0.319772
vn -0.413398 0.861870 0.293738
vn -0.238687 0.795552 0.556889
f 1/1/1 3/3/3 2/2/2
f 4/4/4 1/1/1 5/5/5
f 6/6/6 8/8/8 7/7/7
f 9/9/9 11/11/11 10/10/10
f 12/12/12 3/3/3 11/11/11
