v 1.000000 2.000000 0.000000
v 1.000000 2.000000 0.500000
v 0.500000 2.000000 0.000000
v 0.500000 0.000000 0.000000
v 0.500000 2.000000 0.000000
v 1.000000 0.000000 0.500000
v 1.000000 2.000000 0.500000
v 0.000000 0.800000 1.000000
v 0.000000 0.000000 0.000000
v 1.000000 0.000000 1.000000
v 0.500000 0.000000 0.000000
v 1.000000 0.000000 0.500000
vt 0.000000 1.000000
vt 0.000000 0.000000
vt 0.000000 0.000000
vt 1.000000 0.000000
vt 1.000000 0.000000
vt 1.000000 0.000000
vt 1.000000 0.000000
vt 0.000000 1.000000
vt 0.000000 1.000000
vt 0.000000 1.000000
vt 1.000000 1.000000
vt 1.000000 1.000000
vn 0.000000 1.000000 -0.000015
vn 0.000000 1.000000 -0.000015
vn 0.000000 1.000000 -0.000015
vn -0.707150 -0.000022 0.707064
vn -0.707150 -0.000022 0.707064
vn -0.707150 -0.000022 0.707064
vn -0.707150 -0.000022 0.707064
vn 0.529849 0.662272 -0.529770
vn 0.191585 0.962608 -0.191524
vn 0.290606 0.911681 -0.290492
vn 0.000000 1.000000 -0.000015
vn 0.000000 1.000000 -0.000015
f 1/1/1 3/3/3 2/2/2
f 4/4/4 6/6/6 5/5/5
f 7/7/7 5/5/5 6/6/6
f 8/8/8 10/10/10 9/9/9
f 9/9/9 12/12/12 11/11/11
f 10/10/10 12/12/12 9/9/9
